<svg width="24px" height="24px" viewBox="0 0 24 24" version="1.1" xmlns="http://www.w3.org/2000/svg" xmlns:xlink="http://www.w3.org/1999/xlink">
    <g id="Artboard" stroke="none" stroke-width="1" fill="none" fill-rule="evenodd">
        <g id="Icons/Editors/Insert/Video" fill="#7C98B6">
            <path d="M20.2,1.7 L3.9,1.7 C1.7,1.7 0,3.4 0,5.5 L0,18.4 C0,20.5 1.7,22.2 3.8,22.3 L20.1,22.3 C22.2,22.3 23.9,20.6 24,18.5 L24,5.5 C24,3.4 22.3,1.7 20.2,1.7 Z M14.7,16 C14.7,16.8 14.1,17.4 13.3,17.4 C13.3,17.4 13.3,17.4 13.3,17.4 L3.9,17.4 C3.1,17.4 2.6,16.7 2.6,16 L2.6,7.4 C2.6,6.6 3.2,6 3.9,6 L13.3,6 C14.1,6 14.7,6.7 14.7,7.4 L14.7,16 Z M21.5,15.7 C21.5,16.1 21.2,16.3 20.9,16.1 L16.2,13 L16.2,10.5 L20.9,7.4 C21.2,7.2 21.5,7.3 21.5,7.7 L21.5,15.7 Z" id="Shape"></path>
        </g>
    </g>
</svg>