<?xml version="1.0" encoding="UTF-8"?>
<svg id="Layer_1" data-name="Layer 1" xmlns="http://www.w3.org/2000/svg" viewBox="0 0 250 250">
  <defs>
    <style>
      .cls-1 {
        fill: #fff;
      }
    </style>
  </defs>
  <path class="cls-1" d="M245.58,109.09c-41.27.81-82.61,1.73-123.92,3.18,6.55-8.18,13.04-16.42,19.37-24.82,1.87-2.49-1.29-6.08-3.35-3.59-5.82,7.02-11.51,14.13-17.15,21.3-1.58-33.32-4.39-66.57-8.28-99.49-.42-3.6-5.75-3.76-5.41-.02,3.2,35.71,5.22,71.33,6.66,106.97-2.24.08-4.48.2-6.71.29-10.49-8.06-21.07-15.91-31.65-23.29-.44-.3-.95.39-.56.77,7.72,7.71,15.72,15.34,23.85,22.88-32,1.28-63.98,2.83-95.89,5.1-.76.05-.78,1.25,0,1.27,34.17.54,68.38.29,102.59-.29.86.78,1.73,1.56,2.59,2.35-9.98,13.06-19.79,26.26-29.61,39.48-.92,1.25.63,3.04,1.67,1.8,10.6-12.6,21.19-25.2,31.61-37.94.88.8,1.74,1.61,2.63,2.39,1.43,40.01,2.22,80.05,2.96,120.28.01.74.99.72,1.06,0,3.55-37.75,4.4-75.82,3.5-113.89,12.01,10.27,24.25,20.18,36.7,29.25,2.22,1.61,4.9-2.04,2.9-3.97-12.56-12.06-26-23.69-39.81-34.84-.05-1.7-.05-3.41-.11-5.11,41.48-.84,82.95-2.22,124.35-3.7,3.81-.14,3.86-6.41.03-6.33Z"/>
  <path class="cls-1" d="M159.36,66.13c-3.91-.02-3.94,6.46-.03,6.47,3.91.02,3.94-6.46.03-6.47Z"/>
  <path class="cls-1" d="M64.85,61.03c-6.12-.03-6.17,10.11-.04,10.13,6.12.03,6.17-10.11.04-10.13Z"/>
  <path class="cls-1" d="M61.65,181.74c-6.37-.03-6.43,10.53-.04,10.56,6.37.03,6.42-10.53.04-10.56Z"/>
  <path class="cls-1" d="M180.53,169.72c-7.56-.03-7.62,12.49-.05,12.52,7.56.03,7.62-12.49.05-12.52Z"/>
</svg>